<?xml version="1.0" encoding="UTF-8" standalone="no"?>
<!-- Created with Inkscape (http://www.inkscape.org/) -->

<svg
   width="600"
   height="1000"
   viewBox="0 0 158.751 264.58333"
   version="1.1"
   id="svg1"
   inkscape:version="1.3.2 (091e20ef0f, 2023-11-25)"
   sodipodi:docname="LittleRegressOpenDesignDocument.svg"
   xmlns:inkscape="http://www.inkscape.org/namespaces/inkscape"
   xmlns:sodipodi="http://sodipodi.sourceforge.net/DTD/sodipodi-0.dtd"
   xmlns="http://www.w3.org/2000/svg"
   xmlns:svg="http://www.w3.org/2000/svg">
  <sodipodi:namedview
     id="namedview1"
     pagecolor="#ffffff"
     bordercolor="#000000"
     borderopacity="0.25"
     inkscape:showpageshadow="2"
     inkscape:pageopacity="0.0"
     inkscape:pagecheckerboard="0"
     inkscape:deskcolor="#d1d1d1"
     inkscape:document-units="mm"
     inkscape:zoom="0.3376415"
     inkscape:cx="764.12408"
     inkscape:cy="678.23416"
     inkscape:window-width="1317"
     inkscape:window-height="734"
     inkscape:window-x="45"
     inkscape:window-y="4"
     inkscape:window-maximized="1"
     inkscape:current-layer="layer1" />
  <defs
     id="defs1" />
  <g
     inkscape:label="Capa 1"
     inkscape:groupmode="layer"
     id="layer1">
    <rect
       style="opacity:1;fill:#eba5a5;fill-opacity:1;stroke:none;stroke-width:12.986;stroke-linecap:round;stroke-linejoin:round;stroke-dasharray:none"
       id="rect1"
       width="124.99493"
       height="41.664974"
       x="15.6155"
       y="11.853053"
       ry="6.2156239" />
    <text
       xml:space="preserve"
       style="font-size:18.1555px;font-family:Dyuthi;-inkscape-font-specification:'Dyuthi, Normal';opacity:1;fill:#fbefef;fill-opacity:1;stroke:none;stroke-width:4.33302;stroke-linecap:round;stroke-linejoin:round;stroke-dasharray:none"
       x="20.498205"
       y="26.808399"
       id="text1"><tspan
         sodipodi:role="line"
         style="fill:#fbefef;fill-opacity:1;stroke-width:4.33302"
         x="20.498205"
         y="26.808399"
         id="tspan2">Little Regress </tspan></text>
    <text
       xml:space="preserve"
       style="font-size:18.1555px;font-family:Dyuthi;-inkscape-font-specification:'Dyuthi, Normal';opacity:1;fill:#fbefef;fill-opacity:1;stroke:none;stroke-width:4.33302;stroke-linecap:round;stroke-linejoin:round;stroke-dasharray:none"
       x="21.005884"
       y="41.263702"
       id="text3"><tspan
         sodipodi:role="line"
         style="fill:#fbefef;fill-opacity:1;stroke-width:4.33302"
         x="21.005884"
         y="41.263702"
         id="tspan3">Rebirth</tspan></text>
    <text
       xml:space="preserve"
       style="font-size:8.76634px;font-family:Dyuthi;-inkscape-font-specification:'Dyuthi, Normal';opacity:1;fill:#97a4b0;fill-opacity:1;stroke:none;stroke-width:2.09219;stroke-linecap:round;stroke-linejoin:round;stroke-dasharray:none"
       x="21.193136"
       y="49.500576"
       id="text4"><tspan
         sodipodi:role="line"
         style="fill:#97a4b0;fill-opacity:1;stroke-width:2.09219"
         x="21.193136"
         y="49.500576"
         id="tspan4">Open design document</tspan></text>
    <path
       style="opacity:1;fill:#ffffff;fill-opacity:1;stroke:none;stroke-width:12.986;stroke-linecap:round;stroke-linejoin:round;stroke-dasharray:none"
       d="m 127.5824,42.617163 c -1.25439,-0.683115 -4.06387,-3.632775 -2.83679,-5.015068 1.22709,-1.382293 4.01929,1.020416 4.91615,2.055147 0.89687,1.034732 0.72403,2.795244 0.72403,2.795244 0,0 -1.549,0.847791 -2.80339,0.164677 z"
       id="path4"
       sodipodi:nodetypes="zzzcz" />
    <path
       style="opacity:1;fill:#ffffff;fill-opacity:1;stroke:none;stroke-width:12.986;stroke-linecap:round;stroke-linejoin:round;stroke-dasharray:none"
       d="m 132.86134,42.784208 c 1.05161,0.966567 3.06311,4.508822 1.53779,5.552789 -1.52533,1.043967 -3.65251,-1.96343 -4.27209,-3.184562 -0.61958,-1.221132 -0.0255,-2.887378 -0.0255,-2.887378 0,0 1.70821,-0.447416 2.75982,0.519151 z"
       id="path5"
       sodipodi:nodetypes="zzzcz" />
    <path
       style="opacity:1;fill:#ffffff;fill-opacity:1;stroke:none;stroke-width:13.4983;stroke-linecap:round;stroke-linejoin:round;stroke-dasharray:none"
       d="m 130.01237,45.219073 c -0.76126,1.272641 -3.94452,4.066743 -5.33499,2.740535 -1.39044,-1.326207 1.2226,-4.124071 2.33576,-5.012336 1.11314,-0.888267 2.9394,-0.639415 2.9394,-0.639415 0,0 0.82109,1.638575 0.0598,2.911216 z"
       id="path6"
       sodipodi:nodetypes="zzzcz" />
    <path
       style="opacity:1;fill:#ffffff;fill-opacity:1;stroke:none;stroke-width:12.986;stroke-linecap:round;stroke-linejoin:round;stroke-dasharray:none"
       d="m 130.66156,39.718586 c 0.88832,-1.118492 4.27651,-3.379888 5.42762,-1.933713 1.15111,1.446173 -1.69527,3.784432 -2.86861,4.490347 -1.17334,0.705916 -2.87804,0.233413 -2.87804,0.233413 0,0 -0.56928,-1.671553 0.31905,-2.790045 z"
       id="path7"
       sodipodi:nodetypes="zzzcz" />
    <path
       style="opacity:1;fill:#f8c8c8;fill-opacity:1;stroke:none;stroke-width:12.986;stroke-linecap:round;stroke-linejoin:round;stroke-dasharray:none"
       d="m 128.33937,44.774821 c -1.337,0.502565 -5.40574,0.70001 -5.64946,-1.132219 -0.2437,-1.832237 3.39988,-2.374194 4.76919,-2.376342 1.36932,-0.0022 2.58847,1.279623 2.58847,1.279623 0,0 -0.3712,1.726372 -1.7082,2.228938 z"
       id="path8"
       sodipodi:nodetypes="zzzcz" />
    <path
       style="opacity:1;fill:#f8c8c8;fill-opacity:1;stroke:none;stroke-width:12.986;stroke-linecap:round;stroke-linejoin:round;stroke-dasharray:none"
       d="m 131.91705,40.889553 c 1.41891,-0.163809 5.41436,0.629992 5.20708,2.466702 -0.20729,1.836718 -3.87364,1.480131 -5.20272,1.150601 -1.32908,-0.329531 -2.2015,-1.868424 -2.2015,-1.868424 0,0 0.77825,-1.585085 2.19716,-1.748894 z"
       id="path9"
       sodipodi:nodetypes="zzzcz" />
    <path
       style="opacity:1;fill:#f8c8c8;fill-opacity:1;stroke:none;stroke-width:13.4983;stroke-linecap:round;stroke-linejoin:round;stroke-dasharray:none"
       d="m 131.89686,44.637191 c 0.46529,1.408063 0.49837,5.643516 -1.41421,5.828607 -1.91256,0.185069 -2.3213,-3.621368 -2.26566,-5.044409 0.0556,-1.423027 1.43789,-2.642229 1.43789,-2.642229 0,0 1.7767,0.449968 2.24196,1.858054 z"
       id="path10"
       sodipodi:nodetypes="zzzcz" />
    <path
       style="opacity:1;fill:#f8c8c8;fill-opacity:1;stroke:none;stroke-width:12.986;stroke-linecap:round;stroke-linejoin:round;stroke-dasharray:none"
       d="m 128.15917,40.549835 c -0.26557,-1.403427 0.23841,-5.445672 2.08528,-5.371211 1.84687,0.07446 1.75528,3.756978 1.52232,5.106339 -0.23296,1.349361 -1.705,2.330362 -1.705,2.330362 0,0 -1.63702,-0.662069 -1.90258,-2.065504 z"
       id="path11"
       sodipodi:nodetypes="zzzcz" />
    <rect
       style="opacity:1;fill:#f8c8c8;fill-opacity:1;stroke:none;stroke-width:17.1077;stroke-linecap:round;stroke-linejoin:round;stroke-dasharray:none"
       id="rect11"
       width="124.99493"
       height="74.169388"
       x="15.6155"
       y="65.076675"
       ry="5.235189" />
    <path
       style="opacity:1;fill:#f3a2a2;fill-opacity:1;stroke:none;stroke-width:12.986;stroke-linecap:round;stroke-linejoin:round;stroke-dasharray:none"
       d="m 15.6155,78.248043 h 124.99492 l 1e-5,-7.122004 c 0,0 0.61566,-2.866952 -1.68079,-4.726446 -2.29645,-1.859494 -4.81554,-1.322918 -4.81554,-1.322918 H 20.670747 c 0,0 -2.226144,0 -3.79162,1.747394 -1.565476,1.747393 -1.263627,3.875764 -1.263627,3.875764 z"
       id="path12"
       sodipodi:nodetypes="ccczcczcc" />
    <text
       xml:space="preserve"
       style="font-size:9.18975px;font-family:Dyuthi;-inkscape-font-specification:'Dyuthi, Normal';opacity:1;fill:#ffffff;fill-opacity:1;stroke:none;stroke-width:2.19323;stroke-linecap:round;stroke-linejoin:round;stroke-dasharray:none"
       x="19.997669"
       y="74.812782"
       id="text11"><tspan
         sodipodi:role="line"
         id="tspan11"
         style="fill:#ffffff;fill-opacity:1;stroke-width:2.19323"
         x="19.997669"
         y="74.812782">Objetive</tspan></text>
    <text
       xml:space="preserve"
       style="font-size:5.31322px;font-family:Dyuthi;-inkscape-font-specification:'Dyuthi, Normal';opacity:1;fill:#ffffff;fill-opacity:1;stroke:none;stroke-width:1.26806;stroke-linecap:round;stroke-linejoin:round;stroke-dasharray:none"
       x="18.886946"
       y="83.669495"
       id="text12"><tspan
         sodipodi:role="line"
         id="tspan12"
         style="fill:#ffffff;fill-opacity:1;stroke-width:1.26806"
         x="18.886946"
         y="83.669495">Little Regress rebirth is a datapack designed to</tspan><tspan
         sodipodi:role="line"
         style="fill:#ffffff;fill-opacity:1;stroke-width:1.26806"
         x="18.886946"
         y="90.31102"
         id="tspan13"> generate an age regression experience or for the abdl</tspan><tspan
         sodipodi:role="line"
         style="fill:#ffffff;fill-opacity:1;stroke-width:1.26806"
         x="18.886946"
         y="96.952545"
         id="tspan14"> community within minecraft, the reason for creating</tspan><tspan
         sodipodi:role="line"
         style="fill:#ffffff;fill-opacity:1;stroke-width:1.26806"
         x="18.886946"
         y="103.59407"
         id="tspan15"> this datapack is to give the user the possibility</tspan><tspan
         sodipodi:role="line"
         style="fill:#ffffff;fill-opacity:1;stroke-width:1.26806"
         x="18.886946"
         y="110.2356"
         id="tspan16"> to experiment with all its content on a minecraft</tspan><tspan
         sodipodi:role="line"
         style="fill:#ffffff;fill-opacity:1;stroke-width:1.26806"
         x="18.886946"
         y="116.87712"
         id="tspan17"> server or within a single player world, allowing</tspan><tspan
         sodipodi:role="line"
         style="fill:#ffffff;fill-opacity:1;stroke-width:1.26806"
         x="18.886946"
         y="123.51865"
         id="tspan18"> the user to adapt the datapack as convenient</tspan><tspan
         sodipodi:role="line"
         style="fill:#ffffff;fill-opacity:1;stroke-width:1.26806"
         x="18.886946"
         y="130.16017"
         id="tspan19"> using the configuration system.</tspan></text>
    <rect
       style="opacity:1;fill:#f8c8c8;fill-opacity:1;stroke:none;stroke-width:17.1077;stroke-linecap:round;stroke-linejoin:round;stroke-dasharray:none"
       id="rect19"
       width="124.99493"
       height="49.57502"
       x="15.6155"
       y="150.8047"
       ry="5.235189" />
    <path
       style="opacity:1;fill:#f3a2a2;fill-opacity:1;stroke:none;stroke-width:12.986;stroke-linecap:round;stroke-linejoin:round;stroke-dasharray:none"
       d="m 15.6155,163.97607 h 124.99492 l 1e-5,-7.122 c 0,0 0.61566,-2.86695 -1.68079,-4.72645 -2.29645,-1.85949 -4.81554,-1.32291 -4.81554,-1.32291 H 20.670747 c 0,0 -2.226144,0 -3.79162,1.74739 -1.565476,1.74739 -1.263627,3.87576 -1.263627,3.87576 z"
       id="path19"
       sodipodi:nodetypes="ccczcczcc" />
    <text
       xml:space="preserve"
       style="font-size:9.18975px;font-family:Dyuthi;-inkscape-font-specification:'Dyuthi, Normal';opacity:1;fill:#ffffff;fill-opacity:1;stroke:none;stroke-width:2.19323;stroke-linecap:round;stroke-linejoin:round;stroke-dasharray:none"
       x="19.997669"
       y="160.54082"
       id="text20"><tspan
         sodipodi:role="line"
         id="tspan20"
         style="fill:#ffffff;fill-opacity:1;stroke-width:2.19323"
         x="19.997669"
         y="160.54082">Vision</tspan></text>
    <text
       xml:space="preserve"
       style="font-size:5.31322px;font-family:Dyuthi;-inkscape-font-specification:'Dyuthi, Normal';opacity:1;fill:#ffffff;fill-opacity:1;stroke:none;stroke-width:1.26806;stroke-linecap:round;stroke-linejoin:round;stroke-dasharray:none"
       x="18.886946"
       y="169.39752"
       id="text28"><tspan
         sodipodi:role="line"
         style="fill:#ffffff;fill-opacity:1;stroke-width:1.26806"
         x="18.886946"
         y="169.39752"
         id="tspan28">Little Regress aims to make users experience a </tspan><tspan
         sodipodi:role="line"
         style="fill:#ffffff;fill-opacity:1;stroke-width:1.26806"
         x="18.886946"
         y="176.03905"
         id="tspan10">satisfying environment within Minecraft, </tspan><tspan
         sodipodi:role="line"
         style="fill:#ffffff;fill-opacity:1;stroke-width:1.26806"
         x="18.886946"
         y="182.68057"
         id="tspan21">presenting a sandbox environment where they </tspan><tspan
         sodipodi:role="line"
         style="fill:#ffffff;fill-opacity:1;stroke-width:1.26806"
         x="18.886946"
         y="189.3221"
         id="tspan22">can relax and be themselves in a safe environment..</tspan></text>
  </g>
</svg>
