<?xml version="1.0" encoding="UTF-8" standalone="no"?>
<!-- Created with Inkscape (http://www.inkscape.org/) -->

<svg
   width="210mm"
   height="297mm"
   viewBox="0 0 210 297"
   version="1.1"
   id="svg5"
   inkscape:version="1.2.2 (b0a8486541, 2022-12-01)"
   sodipodi:docname="LR trailer letters.svg"
   xmlns:inkscape="http://www.inkscape.org/namespaces/inkscape"
   xmlns:sodipodi="http://sodipodi.sourceforge.net/DTD/sodipodi-0.dtd"
   xmlns:xlink="http://www.w3.org/1999/xlink"
   xmlns="http://www.w3.org/2000/svg"
   xmlns:svg="http://www.w3.org/2000/svg">
  <sodipodi:namedview
     id="namedview7"
     pagecolor="#393939"
     bordercolor="#d90000"
     borderopacity="0.24705882"
     inkscape:showpageshadow="2"
     inkscape:pageopacity="0"
     inkscape:pagecheckerboard="true"
     inkscape:deskcolor="#575757"
     inkscape:document-units="mm"
     showgrid="false"
     inkscape:zoom="2.0000001"
     inkscape:cx="119.5"
     inkscape:cy="202.99999"
     inkscape:window-width="1362"
     inkscape:window-height="735"
     inkscape:window-x="2"
     inkscape:window-y="31"
     inkscape:window-maximized="1"
     inkscape:current-layer="layer1"
     inkscape:lockguides="true" />
  <defs
     id="defs2">
    <linearGradient
       inkscape:collect="always"
       id="linearGradient992">
      <stop
         style="stop-color:#000000;stop-opacity:1;"
         offset="0"
         id="stop988" />
      <stop
         style="stop-color:#000000;stop-opacity:0;"
         offset="1"
         id="stop990" />
    </linearGradient>
    <linearGradient
       inkscape:collect="always"
       xlink:href="#linearGradient992"
       id="linearGradient994"
       x1="0"
       y1="3.7008555"
       x2="41.604954"
       y2="3.7008555"
       gradientUnits="userSpaceOnUse" />
    <linearGradient
       inkscape:collect="always"
       xlink:href="#linearGradient992"
       id="linearGradient1052"
       gradientUnits="userSpaceOnUse"
       x1="0"
       y1="3.7008555"
       x2="41.604954"
       y2="3.7008555"
       gradientTransform="translate(0,8.1509166)" />
    <linearGradient
       inkscape:collect="always"
       xlink:href="#linearGradient992"
       id="linearGradient1056"
       gradientUnits="userSpaceOnUse"
       gradientTransform="translate(0,17.119749)"
       x1="0"
       y1="3.7008555"
       x2="41.604954"
       y2="3.7008555" />
    <linearGradient
       inkscape:collect="always"
       xlink:href="#linearGradient992"
       id="linearGradient1060"
       gradientUnits="userSpaceOnUse"
       gradientTransform="translate(0,24.707292)"
       x1="0"
       y1="3.7008555"
       x2="41.604954"
       y2="3.7008555" />
    <linearGradient
       inkscape:collect="always"
       xlink:href="#linearGradient992"
       id="linearGradient1064"
       gradientUnits="userSpaceOnUse"
       gradientTransform="translate(0,32.667065)"
       x1="0"
       y1="3.7008555"
       x2="41.604954"
       y2="3.7008555" />
    <linearGradient
       inkscape:collect="always"
       xlink:href="#linearGradient992"
       id="linearGradient1162"
       gradientUnits="userSpaceOnUse"
       gradientTransform="translate(0,40.293803)"
       x1="0"
       y1="3.7008555"
       x2="41.604954"
       y2="3.7008555" />
  </defs>
  <g
     inkscape:label="Capa 1"
     inkscape:groupmode="layer"
     id="layer1">
    <rect
       style="fill:#212121;fill-opacity:1;stroke-width:0.792491"
       id="rect1279"
       width="36.741707"
       height="8.5837259"
       x="38.229904"
       y="48.978058"
       ry="2.8334672" />
    <rect
       style="fill:#212121;stroke-width:0.765;fill-opacity:1"
       id="rect676"
       width="34.23679"
       height="8.5837259"
       x="0.6024422"
       y="48.964382"
       ry="2.8334672" />
    <rect
       style="fill:url(#linearGradient1162);fill-opacity:1;stroke-width:0.718133"
       id="rect1160"
       width="48.110863"
       height="7.4017105"
       x="0"
       y="40.293804"
       ry="0"
       inkscape:export-filename="baby bottle es.png"
       inkscape:export-xdpi="366.30252"
       inkscape:export-ydpi="366.30252" />
    <rect
       style="fill:url(#linearGradient1064);fill-opacity:1;stroke-width:0.718133"
       id="rect1062"
       width="48.110863"
       height="7.4017105"
       x="0"
       y="32.667065"
       ry="0"
       inkscape:export-filename="baby bottle en.png"
       inkscape:export-xdpi="366.30252"
       inkscape:export-ydpi="366.30252" />
    <rect
       style="fill:url(#linearGradient1060);fill-opacity:1;stroke-width:0.718133"
       id="rect1058"
       width="48.110863"
       height="7.4017105"
       x="0"
       y="24.707291"
       ry="0"
       inkscape:export-filename="peeing es.png"
       inkscape:export-xdpi="366.30252"
       inkscape:export-ydpi="366.30252" />
    <rect
       style="fill:url(#linearGradient1056);fill-opacity:1;stroke-width:0.718133"
       id="rect1054"
       width="48.110863"
       height="7.4017105"
       x="0"
       y="17.119749"
       ry="0"
       inkscape:export-filename="peeing en.png"
       inkscape:export-xdpi="366.30252"
       inkscape:export-ydpi="366.30252" />
    <rect
       style="fill:url(#linearGradient1052);fill-opacity:1;stroke-width:0.718133"
       id="rect1050"
       width="41.604954"
       height="7.401711"
       x="0"
       y="8.1509161"
       ry="0"
       inkscape:export-filename="DIAPERS ES.png"
       inkscape:export-xdpi="366.30252"
       inkscape:export-ydpi="366.30252" />
    <rect
       style="fill:url(#linearGradient994);stroke-width:0.718133;fill-opacity:1"
       id="rect362"
       width="41.604954"
       height="7.401711"
       x="0"
       y="0"
       ry="0"
       inkscape:export-filename="DIAPERS EN.png"
       inkscape:export-xdpi="366.30252"
       inkscape:export-ydpi="366.30252" />
    <path
       style="fill:#e19999;fill-opacity:1;stroke-width:0.765"
       d="m 0.72572601,0.8525541 v 2.8462505 c 0,0 1.63567789,-0.3267376 1.70480349,-1.5286288 C 2.4996551,0.96828447 1.041688,0.84672992 1.041688,0.84672992 l 0.00871,0.39625878 c 0,0 0.9591637,0.0044 0.94571,0.9330665 C 1.982654,3.1047243 0.99809399,3.2508879 0.99809399,3.2508879 l -0.002875,-2.40626418 z"
       id="path915"
       sodipodi:nodetypes="cczcczccc"
       inkscape:export-filename="DIAPERS EN.png"
       inkscape:export-xdpi="492.0553"
       inkscape:export-ydpi="492.0553" />
    <path
       style="fill:#e19999;fill-opacity:1;stroke-width:0.765"
       d="M 2.6731907,0.84462372 H 2.9906854 L 3.0050914,3.6988046 H 2.6803005 Z"
       id="path1078"
       sodipodi:nodetypes="ccccc" />
    <path
       style="fill:#e19999;fill-opacity:1;stroke-width:0.765"
       d="M 3.3410895,3.6988046 4.1192621,0.8446237 h 0.583991 L 5.4611857,3.6988046 H 5.0398878 L 4.6631865,2.2929363 H 4.1085317 l 0.091004,-0.3396325 h 0.419584 L 4.4995456,1.1372608 4.3700361,1.1255771 3.7217076,3.6988046 Z"
       id="path1080"
       sodipodi:nodetypes="ccccccccccccc" />
    <path
       style="fill:#e19999;fill-opacity:1;stroke-width:0.765"
       d="M 5.7142787,3.6988046 5.7140093,0.98077566 c 0,0 -0.00725,-0.0574118 0.040461,-0.10150238 0.047706,-0.0440906 0.094854,-0.0346496 0.094854,-0.0346496 h 0.1551304 c 0,0 0.7708927,0.21718272 0.7692938,0.69643652 -0.0016,0.4792538 -0.7766029,0.5001995 -0.7766029,0.5001995 V 1.8470726 c 0,0 0.00257,-0.032132 0.015912,-0.046666 0.013339,-0.014534 0.01631,-0.031109 0.063218,-0.0278 0.1247817,0.0088 0.3534932,-0.00723 0.3560933,-0.2425041 0.00358,-0.3237152 -0.446478,-0.446478 -0.446478,-0.446478 H 5.950479 l -7.409e-4,2.6151803 z"
       id="path1082"
       sodipodi:nodetypes="cczcczcczsscccc" />
    <path
       style="fill:#e19999;fill-opacity:1;stroke-width:0.765"
       d="m 7.0035985,0.85972543 -0.00937,2.85418087 h 1.107447 V 3.330592 H 7.3556269 V 1.8714455 H 8.1353842 V 1.5362903 H 7.3775355 V 1.0978655 H 8.1370076 L 8.1189869,0.85972543 Z"
       id="path1147" />
    <path
       style="fill:#e19999;fill-opacity:1;stroke-width:0.765"
       d="m 8.4354963,0.8446237 0.00736,2.8541809 H 8.7155982 V 2.1001032 h 0.155775 L 9.3774375,3.6988046 H 9.6542181 V 3.6043902 L 9.279792,2.0741024 c 0,0 0.440314,-0.080438 0.456688,-0.6487455 C 9.752854,0.85704968 9.0440517,0.8446237 9.0440517,0.8446237 H 8.7387569 V 1.1074625 H 9.017837 c 0,0 0.435212,-0.058197 0.428337,0.3443759 C 9.439294,1.8544116 9.1158043,1.8951271 9.1158043,1.8951271 H 8.7135641 l 0.00363,-1.0505034 z"
       id="path1149"
       sodipodi:nodetypes="ccccccccczcccczcccc" />
    <path
       style="fill:#e19999;fill-opacity:1;stroke-width:0.943556"
       d="m 10.769123,1.8952831 c -0.107903,0.00967 -0.110998,-0.075619 -0.123007,-0.1512772 -0.01201,-0.075658 0.100883,-0.1417826 0.09518,-0.2469487 -0.0057,-0.1051661 0.01634,-0.3237624 -0.168378,-0.3263975 -0.184714,-0.00264 -0.37104,0.3052671 -0.358428,0.6486905 0.01261,0.3434233 0.716599,0.7346792 0.721849,1.1060971 0.0053,0.3714179 -0.187555,0.7447045 -0.474516,0.7740604 C 10.174861,3.7288636 9.9168203,3.2706983 9.8986545,3.0996114 9.8804887,2.9285245 9.8643705,2.9339154 10.006758,2.9201899 10.149145,2.9064644 10.24403,3.4367667 10.441584,3.4017337 10.639139,3.3667007 10.676327,3.1901739 10.649221,2.8870306 10.622115,2.5838872 9.9796375,2.202993 9.9720877,1.811293 9.9645379,1.419593 10.201801,0.89673909 10.51153,0.87621019 c 0.309729,-0.0205289 0.461675,0.41486521 0.477311,0.62059841 0.01564,0.2057332 -0.111815,0.3888035 -0.219718,0.3984745 z"
       id="path1151"
       sodipodi:nodetypes="zzzzzzzzzzzzzzz" />
    <path
       style="fill:#e19999;fill-opacity:1;stroke-width:0.765"
       d="m 0.73105903,11.848176 -2.694e-4,-2.7180285 c 0,0 -0.00725,-0.05741 0.040461,-0.101502 0.047706,-0.04409 0.094854,-0.03465 0.094854,-0.03465 H 1.021235 c 0,0 0.7708927,0.217183 0.7692938,0.696437 -0.0016,0.4792525 -0.7766029,0.5001985 -0.7766029,0.5001985 V 9.9964445 c 0,0 0.00257,-0.03213 0.015912,-0.04667 0.013339,-0.01453 0.01631,-0.03111 0.063218,-0.0278 0.1247817,0.0088 0.3534932,-0.0072 0.3560933,-0.242504 0.00358,-0.323715 -0.446478,-0.446478 -0.446478,-0.446478 H 0.9672593 l -7.409e-4,2.6151805 z"
       id="path1234"
       sodipodi:nodetypes="cczcczcczsscccc"
       inkscape:export-filename="DIAPERS ES.png"
       inkscape:export-xdpi="376.73657"
       inkscape:export-ydpi="376.73657" />
    <path
       style="fill:#e19999;fill-opacity:1;stroke-width:0.765"
       d="M 1.3344752,11.848668 2.1126478,8.9944875 h 0.583991 L 3.4545714,11.848668 H 3.0332735 L 2.6565722,10.4428 H 2.1019174 l 0.091004,-0.339632 h 0.419584 L 2.4929313,9.2871255 2.3634218,9.2754415 1.7150933,11.848668 Z"
       id="path1236"
       sodipodi:nodetypes="ccccccccccccc" />
    <path
       style="fill:#e19999;fill-opacity:1;stroke-width:0.765"
       d="M 3.5582391,11.846057 V 9.0302945 H 3.8783733 L 4.5901604,10.263146 V 9.0432935 H 4.8746521 V 11.848168 H 4.5779515 V 10.60756 L 3.8822561,9.4025805 v 2.4411115 z"
       id="path1238"
       sodipodi:nodetypes="cccccccccccc" />
    <path
       style="fill:#e19999;fill-opacity:1;stroke-width:0.765"
       d="m 3.5959303,8.8959365 c 0,0 0.29389,-0.1635441 0.4612693,-0.1550924 0.1673793,0.00845 0.3308979,0.2127614 0.4726927,0.2140794 0.1417948,0.0013 0.304827,-0.1312799 0.304827,-0.1312799 L 4.7275051,8.6843068 c 0,0 -0.059622,0.1063934 -0.1865278,0.1162609 C 4.4140715,8.8104352 4.2219102,8.5917338 4.040437,8.5876601 3.8589638,8.5835864 3.5296903,8.7783241 3.5296903,8.7783241 Z"
       id="path1240"
       sodipodi:nodetypes="czzcczzcc" />
    <path
       style="fill:#e19999;fill-opacity:1;stroke-width:0.765"
       d="M 4.9695362,11.848668 5.7477088,8.9944875 h 0.583991 L 7.0896324,11.848668 H 6.6683345 L 6.4431343,10.865656 5.7369784,10.4428 5.8279824,10.103168 6.3990675,10.526023 6.1279923,9.2871255 5.9984828,9.2754415 5.3501543,11.848668 Z"
       id="path1242"
       sodipodi:nodetypes="ccccccccccccc" />
    <path
       style="fill:#e19999;fill-opacity:1;stroke-width:0.765"
       d="M 7.2089999,11.856816 V 9.0411845 H 7.50035 V 11.58135 h 0.7909491 v 0.27533 z"
       id="path1244" />
    <path
       style="fill:#e19999;fill-opacity:1;stroke-width:0.765"
       d="m 8.5137893,9.0159895 -0.00937,2.8541805 h 1.107447 V 11.486855 H 8.8658177 V 10.027709 H 9.645575 V 9.6925545 H 8.8877263 v -0.438425 h 0.7594721 l -0.018021,-0.23814 z"
       id="path1246" />
    <path
       style="fill:#e19999;fill-opacity:1;stroke-width:0.943556"
       d="m 10.769123,10.0462 c -0.107903,0.0097 -0.110998,-0.07562 -0.123007,-0.1512775 -0.01201,-0.07566 0.100883,-0.141782 0.09518,-0.246948 -0.0057,-0.105166 0.01634,-0.323763 -0.168378,-0.326398 -0.184714,-0.0026 -0.37104,0.305267 -0.358428,0.648691 0.01261,0.3434225 0.716599,0.7346785 0.721849,1.1060965 0.0053,0.371418 -0.187555,0.744704 -0.474516,0.77406 -0.286962,0.02936 -0.5450027,-0.428809 -0.5631685,-0.599896 -0.018166,-0.171087 -0.034284,-0.165696 0.1081035,-0.179422 0.142387,-0.01373 0.237272,0.516577 0.434826,0.481544 0.197555,-0.03503 0.234743,-0.21156 0.207637,-0.514703 -0.02711,-0.303143 -0.6695835,-0.684038 -0.6771333,-1.0757375 -0.00755,-0.3917 0.2297133,-0.914553 0.5394423,-0.935082 0.309729,-0.02053 0.461675,0.414865 0.477311,0.620598 0.01564,0.205733 -0.111815,0.3888035 -0.219718,0.3984745 z"
       id="path1266"
       sodipodi:nodetypes="zzzzzzzzzzzzzzz" />
    <path
       style="fill:#ecebbd;fill-opacity:1;stroke-width:0.765"
       d="m 0.42090904,44.004569 v -2.792082 h 0.282215 c 0,0 0.56957696,0.02169 0.57753296,0.74139 0.008,0.719699 -0.279259,0.642916 -0.279259,0.642916 0,0 0.242676,-0.0019 0.24273,0.606388 5.4e-5,0.608299 -0.65765396,0.875546 -0.65765396,0.875546 v -0.232034 c 0,0 0.399905,-0.04401 0.42260396,-0.622505 0.0227,-0.578496 -0.36188896,-0.628453 -0.36188896,-0.628453 0,0 0.47949096,-0.03523 0.47179096,-0.642252 C 1.11128,41.346465 0.61912604,41.34167 0.61912604,41.34167 l -0.05042,0.0013 v 2.738022 h -0.151172 z"
       id="path1268"
       sodipodi:nodetypes="ccczczcczczccccc"
       inkscape:export-filename="baby bottle es.png"
       inkscape:export-xdpi="351.95795"
       inkscape:export-ydpi="351.95795" />
    <path
       style="fill:#ecebbd;fill-opacity:1;stroke-width:0.765"
       d="m 1.334823,41.212784 h 0.317494 l 0.01441,2.85418 H 1.341932 Z"
       id="path1006"
       sodipodi:nodetypes="ccccc" />
    <path
       style="fill:#ecebbd;fill-opacity:1;stroke-width:0.765"
       d="m 1.7539065,44.004569 v -2.792082 h 0.282215 c 0,0 0.569577,0.02169 0.577533,0.74139 0.008,0.719699 -0.279259,0.642916 -0.279259,0.642916 0,0 0.242676,-0.0019 0.24273,0.606388 5.4e-5,0.608299 -0.657654,0.875546 -0.657654,0.875546 v -0.232034 c 0,0 0.399905,-0.04401 0.422604,-0.622505 0.0227,-0.578496 -0.361889,-0.628453 -0.361889,-0.628453 0,0 0.479491,-0.03523 0.471791,-0.642252 -0.0077,-0.607018 -0.499854,-0.611813 -0.499854,-0.611813 l -0.05042,0.0013 v 2.738022 h -0.151172 z"
       id="path1029"
       sodipodi:nodetypes="ccczczcczczccccc" />
    <path
       style="fill:#ecebbd;fill-opacity:1;stroke-width:0.765"
       d="m 2.6958845,41.227885 -0.0094,2.854181 h 1.107447 v -0.383314 h -0.746018 v -1.459147 h 0.779757 V 41.90445 h -0.757849 v -0.438425 h 0.759472 l -0.01802,-0.23814 z"
       id="path1031" />
    <path
       style="fill:#ecebbd;fill-opacity:1;stroke-width:0.765"
       d="m 3.8985315,41.212784 0.0074,2.85418 h 0.272742 v -1.598701 h 0.155775 l 0.506064,1.598701 h 0.276781 v -0.09441 l -0.374466,-1.530292 c 0,0 0.440314,-0.08044 0.456688,-0.648745 0.01637,-0.568307 -0.692429,-0.580733 -0.692429,-0.580733 h -0.305295 v 0.262838 h 0.279081 c 0,0 0.435212,-0.0582 0.428337,0.344376 -0.0069,0.402573 -0.33037,0.443289 -0.33037,0.443289 h -0.40224 l 0.0036,-1.050503 z"
       id="path1033"
       sodipodi:nodetypes="ccccccccczcccczcccc" />
    <path
       style="fill:#ecebbd;fill-opacity:1;stroke-width:0.765"
       d="m 5.8946595,41.280052 c -0.48572,-0.0069 -0.666528,0.71231 -0.705954,1.222748 -0.03943,0.510438 0.04673,1.507437 0.599334,1.547863 0.552607,0.04043 0.815213,-0.920483 0.82059,-1.448349 0.0054,-0.527867 -0.22825,-1.315341 -0.71397,-1.322262 z"
       id="path1089"
       sodipodi:nodetypes="zzzzz" />
    <path
       style="fill:#ecebbd;fill-opacity:1;stroke-width:0.765"
       d="m 6.6917535,44.073576 v -2.815763 h 0.320135 l 0.711787,1.232852 v -1.219853 h 0.284491 v 2.804875 h -0.2967 v -1.240608 l -0.695696,-1.20498 v 2.441112 z"
       id="path1091"
       sodipodi:nodetypes="cccccccccccc" />
    <path
       style="fill:#ecebbd;fill-opacity:1;stroke-width:0.765"
       d="m 8.1820565,41.261594 -0.0094,2.85418 h 1.107447 V 43.73246 h -0.746018 v -1.459146 h 0.779757 v -0.335156 h -0.757849 v -0.438424 h 0.759472 l -0.01802,-0.23814 z"
       id="path1093" />
    <path
       style="fill:#ecebbd;fill-opacity:1;stroke-width:0.943556"
       d="m 10.246346,42.263443 c -0.107903,0.0097 -0.110998,-0.07562 -0.123007,-0.151277 -0.01201,-0.07566 0.100883,-0.141783 0.09518,-0.246949 -0.0057,-0.105166 0.01634,-0.323762 -0.168378,-0.326397 -0.1847145,-0.0026 -0.3710405,0.305267 -0.3584285,0.64869 0.01261,0.343423 0.7165995,0.734679 0.7218495,1.106097 0.0053,0.371418 -0.187555,0.744705 -0.4745165,0.774061 -0.286962,0.02936 -0.545003,-0.42881 -0.563169,-0.599897 -0.01816,-0.171087 -0.03428,-0.165696 0.108104,-0.179421 0.142387,-0.01373 0.237272,0.516577 0.434826,0.481544 0.1975555,-0.03503 0.2347435,-0.21156 0.2076375,-0.514704 -0.02711,-0.303143 -0.6695845,-0.684037 -0.6771335,-1.075737 -0.0076,-0.3917 0.229713,-0.914554 0.539442,-0.935083 0.3097295,-0.02053 0.4616755,0.414865 0.4773115,0.620598 0.01564,0.205734 -0.111815,0.388804 -0.219718,0.398475 z"
       id="path1095"
       sodipodi:nodetypes="zzzzzzzzzzzzzzz" />
    <path
       style="fill:#ecebbd;fill-opacity:1;stroke-width:0.765"
       d="m 0.42090904,36.386841 v -2.792082 h 0.282215 c 0,0 0.56957696,0.02169 0.57753296,0.74139 0.008,0.719699 -0.279259,0.642916 -0.279259,0.642916 0,0 0.242676,-0.0019 0.24273,0.606388 5.4e-5,0.608299 -0.65765396,0.875546 -0.65765396,0.875546 v -0.232034 c 0,0 0.399905,-0.04401 0.42260396,-0.622505 0.0227,-0.578496 -0.36188896,-0.628453 -0.36188896,-0.628453 0,0 0.47949096,-0.03523 0.47179096,-0.642252 -0.0077,-0.607018 -0.49985396,-0.611813 -0.49985396,-0.611813 l -0.05042,0.0013 v 2.738022 h -0.151172 z"
       id="path1097"
       sodipodi:nodetypes="ccczczcczczccccc"
       inkscape:export-filename="baby bottle en.png"
       inkscape:export-xdpi="327.48856"
       inkscape:export-ydpi="327.48856" />
    <path
       style="fill:#ecebbd;fill-opacity:1;stroke-width:0.765"
       d="m 1.194642,36.438847 0.778172,-2.854181 h 0.583991 l 0.757933,2.854181 H 2.89344 L 2.516739,35.032978 H 1.962084 l 0.091,-0.339632 H 2.472668 L 2.353094,33.877303 2.223584,33.865623 1.575256,36.43885 Z"
       id="path1115"
       sodipodi:nodetypes="ccccccccccccc" />
    <path
       style="fill:#ecebbd;fill-opacity:1;stroke-width:0.765"
       d="m 3.465951,36.386841 v -2.792082 h 0.282215 c 0,0 0.569577,0.02169 0.577533,0.74139 0.008,0.719699 -0.279259,0.642916 -0.279259,0.642916 0,0 0.242676,-0.0019 0.24273,0.606388 5.4e-5,0.608299 -0.657654,0.875546 -0.657654,0.875546 v -0.232034 c 0,0 0.399905,-0.04401 0.422604,-0.622505 0.0227,-0.578496 -0.361889,-0.628453 -0.361889,-0.628453 0,0 0.479491,-0.03523 0.471791,-0.642252 -0.0077,-0.607018 -0.499854,-0.611813 -0.499854,-0.611813 l -0.05042,0.0013 v 2.738022 H 3.462576 Z"
       id="path1117"
       sodipodi:nodetypes="ccczczcczczccccc" />
    <path
       style="fill:#ecebbd;fill-opacity:1;stroke-width:0.765"
       d="m 4.453907,33.595126 h 0.317494 l 0.01441,2.854181 H 4.461016 Z"
       id="path1119"
       sodipodi:nodetypes="ccccc" />
    <path
       style="fill:#ecebbd;fill-opacity:1;stroke-width:0.765"
       d="m 5.778528,36.386841 v -2.792082 h 0.282215 c 0,0 0.569577,0.02169 0.577533,0.74139 0.008,0.719699 -0.279259,0.642916 -0.279259,0.642916 0,0 0.242676,-0.0019 0.24273,0.606388 5.4e-5,0.608299 -0.657654,0.875546 -0.657654,0.875546 v -0.232034 c 0,0 0.399905,-0.04401 0.422604,-0.622505 0.0227,-0.578496 -0.361889,-0.628453 -0.361889,-0.628453 0,0 0.479491,-0.03523 0.471791,-0.642252 -0.0077,-0.607018 -0.499854,-0.611813 -0.499854,-0.611813 l -0.05042,0.0013 v 2.738022 H 5.775153 Z"
       id="path1121"
       sodipodi:nodetypes="ccczczcczczccccc" />
    <path
       style="fill:#ecebbd;fill-opacity:1;stroke-width:0.765"
       d="m 7.459276,33.68683 c -0.48572,-0.0069 -0.666528,0.71231 -0.705954,1.222748 -0.03943,0.510438 0.04673,1.507437 0.599334,1.547863 0.552607,0.04043 0.815213,-0.920483 0.82059,-1.448349 0.0054,-0.527867 -0.22825,-1.315341 -0.71397,-1.322262 z"
       id="path1123"
       sodipodi:nodetypes="zzzzz" />
    <path
       style="fill:#ecebbd;fill-opacity:1;stroke-width:0.765"
       d="M 8.179803,33.63428 H 9.58032 v 0.292792 H 9.039989 v 2.511321 H 8.69603 V 33.954006 H 8.16412 Z"
       id="path1214" />
    <path
       style="fill:#ecebbd;fill-opacity:1;stroke-width:0.765"
       d="m 11.23841,36.435275 v -2.815633 h 0.29135 v 2.540167 h 0.79095 v 0.27533 z"
       id="path1216" />
    <path
       style="fill:#ecebbd;fill-opacity:1;stroke-width:0.765"
       d="m 9.700712,33.63428 h 1.400517 v 0.292792 h -0.540331 v 2.511321 h -0.343959 v -2.484387 h -0.53191 z"
       id="path1218" />
    <path
       style="fill:#ecebbd;fill-opacity:1;stroke-width:0.765"
       d="m 12.478715,33.533515 -0.0094,2.854181 h 1.107447 v -0.383314 h -0.746019 v -1.459147 h 0.779758 V 34.21008 h -0.757849 v -0.438425 h 0.759472 l -0.01802,-0.23814 z"
       id="path1220" />
    <path
       style="fill:#ecebbd;fill-opacity:1;stroke-width:0.943556"
       d="m 14.566833,34.594968 c -0.107903,0.0097 -0.110998,-0.07562 -0.123007,-0.151278 -0.01201,-0.07566 0.100883,-0.141782 0.09518,-0.246948 -0.0057,-0.105166 0.01634,-0.323763 -0.168378,-0.326398 -0.184714,-0.0026 -0.37104,0.305267 -0.358428,0.648691 0.01261,0.343423 0.716599,0.734679 0.721849,1.106097 0.0053,0.371418 -0.187555,0.744704 -0.474516,0.77406 -0.286962,0.02936 -0.545003,-0.428809 -0.563169,-0.599896 -0.01816,-0.171087 -0.03428,-0.165696 0.108104,-0.179422 0.142387,-0.01373 0.237272,0.516577 0.434826,0.481544 0.197555,-0.03503 0.234743,-0.21156 0.207637,-0.514703 -0.02711,-0.303143 -0.669584,-0.684038 -0.677133,-1.075738 -0.0076,-0.3917 0.229713,-0.914553 0.539442,-0.935082 0.309729,-0.02053 0.461675,0.414865 0.477311,0.620598 0.01564,0.205733 -0.111815,0.388804 -0.219718,0.398475 z"
       id="path1260"
       sodipodi:nodetypes="zzzzzzzzzzzzzzz" />
    <text
       xml:space="preserve"
       style="font-size:3.175px;fill:#e19999;fill-opacity:1;stroke-width:0.765;-inkscape-font-specification:'URW Gothic, Normal';font-family:'URW Gothic';font-weight:normal;font-style:normal;font-stretch:normal;font-variant:normal;font-variant-ligatures:normal;font-variant-caps:normal;font-variant-numeric:normal;font-variant-east-asian:normal"
       x="0.43644252"
       y="6.4486785"
       id="text1355"><tspan
         sodipodi:role="line"
         id="tspan1353"
         style="fill:#e19999;fill-opacity:1;stroke-width:0.765;-inkscape-font-specification:'URW Gothic, Normal';font-family:'URW Gothic';font-weight:normal;font-style:normal;font-stretch:normal;font-variant:normal;font-size:3.175px;font-variant-ligatures:normal;font-variant-caps:normal;font-variant-numeric:normal;font-variant-east-asian:normal"
         x="0.43644252"
         y="6.4486785">FIVE DIFERENT STYLES</tspan></text>
    <text
       xml:space="preserve"
       style="font-style:normal;font-variant:normal;font-weight:normal;font-stretch:normal;font-size:3.175px;font-family:'URW Gothic';-inkscape-font-specification:'URW Gothic, Normal';font-variant-ligatures:normal;font-variant-caps:normal;font-variant-numeric:normal;font-variant-east-asian:normal;fill:#e19999;fill-opacity:1;stroke-width:0.765"
       x="0.43644252"
       y="14.821647"
       id="text1657"><tspan
         sodipodi:role="line"
         id="tspan1655"
         style="font-style:normal;font-variant:normal;font-weight:normal;font-stretch:normal;font-size:3.175px;font-family:'URW Gothic';-inkscape-font-specification:'URW Gothic, Normal';font-variant-ligatures:normal;font-variant-caps:normal;font-variant-numeric:normal;font-variant-east-asian:normal;fill:#e19999;fill-opacity:1;stroke-width:0.765"
         x="0.43644252"
         y="14.821647">CINCO ESTILOS DIFERENTES</tspan></text>
    <text
       xml:space="preserve"
       style="font-style:normal;font-variant:normal;font-weight:normal;font-stretch:normal;font-size:3.175px;font-family:'URW Gothic';-inkscape-font-specification:'URW Gothic, Normal';font-variant-ligatures:normal;font-variant-caps:normal;font-variant-numeric:normal;font-variant-east-asian:normal;fill:#ecebbd;fill-opacity:1;stroke-width:0.765"
       x="0.14368112"
       y="39.176407"
       id="text1849"><tspan
         sodipodi:role="line"
         id="tspan1847"
         style="font-style:normal;font-variant:normal;font-weight:normal;font-stretch:normal;font-size:3.175px;font-family:'URW Gothic';-inkscape-font-specification:'URW Gothic, Normal';font-variant-ligatures:normal;font-variant-caps:normal;font-variant-numeric:normal;font-variant-east-asian:normal;fill:#ecebbd;fill-opacity:1;stroke-width:0.765"
         x="0.14368112"
         y="39.176407">ONE HUNDRED OF VARIATIONS</tspan></text>
    <text
       xml:space="preserve"
       style="font-style:normal;font-variant:normal;font-weight:normal;font-stretch:normal;font-size:3.175px;font-family:'URW Gothic';-inkscape-font-specification:'URW Gothic, Normal';font-variant-ligatures:normal;font-variant-caps:normal;font-variant-numeric:normal;font-variant-east-asian:normal;fill:#ecebbd;fill-opacity:1;stroke-width:0.765"
       x="0.14368112"
       y="46.863815"
       id="text1922"><tspan
         sodipodi:role="line"
         id="tspan1920"
         style="font-style:normal;font-variant:normal;font-weight:normal;font-stretch:normal;font-size:3.175px;font-family:'URW Gothic';-inkscape-font-specification:'URW Gothic, Normal';font-variant-ligatures:normal;font-variant-caps:normal;font-variant-numeric:normal;font-variant-east-asian:normal;fill:#ecebbd;fill-opacity:1;stroke-width:0.765"
         x="0.14368112"
         y="46.863815">CIEN VARIACIONES POSIBLES</tspan></text>
    <path
       style="fill:#cbcc51;fill-opacity:1;stroke-width:0.765"
       d="m 0.73105903,20.971347 -2.694e-4,-2.718028 c 0,0 -0.00725,-0.05741 0.040461,-0.101502 0.047706,-0.04409 0.094854,-0.03465 0.094854,-0.03465 H 1.021235 c 0,0 0.7708927,0.217183 0.7692938,0.696437 -0.0016,0.479252 -0.7766029,0.500198 -0.7766029,0.500198 v -0.194186 c 0,0 0.00257,-0.03213 0.015912,-0.04667 0.013339,-0.01453 0.01631,-0.03111 0.063218,-0.0278 0.1247817,0.0088 0.3534932,-0.0072 0.3560933,-0.242504 0.00358,-0.323715 -0.446478,-0.446478 -0.446478,-0.446478 H 0.9672593 l -7.409e-4,2.61518 z"
       id="path1971"
       sodipodi:nodetypes="cczcczcczsscccc"
       inkscape:export-filename="peeing en.png"
       inkscape:export-xdpi="341.58829"
       inkscape:export-ydpi="341.58829" />
    <path
       style="fill:#cbcc51;fill-opacity:1;stroke-width:0.765"
       d="m 2.0437282,18.093637 -0.00937,2.854181 h 1.107447 V 20.564503 H 2.3957566 V 19.105357 H 3.1755139 V 18.770202 H 2.4176652 v -0.438425 h 0.7594721 l -0.018021,-0.23814 z"
       id="path1973" />
    <path
       style="fill:#cbcc51;fill-opacity:1;stroke-width:0.765"
       d="m 3.446541,18.093637 -0.00937,2.854181 H 4.544618 V 20.564503 H 3.7985694 V 19.105357 H 4.5783267 V 18.770202 H 3.820478 v -0.438425 h 0.7594721 l -0.018021,-0.23814 z"
       id="path1975" />
    <path
       style="fill:#cbcc51;fill-opacity:1;stroke-width:0.765"
       d="m 4.9616101,18.10126 h 0.3174947 l 0.014406,2.854181 H 4.9687199 Z"
       id="path1977"
       sodipodi:nodetypes="ccccc" />
    <path
       style="fill:#cbcc51;fill-opacity:1;stroke-width:0.765"
       d="M 5.6569388,20.95537 V 18.139607 H 5.977073 l 0.7117871,1.232852 v -1.219853 h 0.2844917 v 2.804875 H 6.6766512 v -1.240608 l -0.6956954,-1.20498 v 2.441112 z"
       id="path1979"
       sodipodi:nodetypes="cccccccccccc" />
    <path
       style="fill:#cbcc51;fill-opacity:1;stroke-width:0.765"
       d="m 8.1866985,18.712169 c 0,0 -0.036354,-0.548 -0.4477272,-0.543006 -0.411373,0.005 -0.5075499,0.56317 -0.5075499,0.56317 l 0.021238,1.740116 c 0,0 0.027443,0.494543 0.4733139,0.512332 0.4458713,0.01779 0.5556511,-0.401634 0.5772451,-0.59433 0.021594,-0.192696 -0.044613,-0.535319 -0.075677,-0.678813 -0.031064,-0.143495 -0.071294,-0.370973 -0.3377221,-0.342436 -0.2664283,0.02854 -0.2884364,0.495107 -0.2884364,0.495107 l 0.1066425,0.0056 c 0,0 0.081956,-0.267944 0.2030058,-0.261971 0.1210496,0.006 0.1515081,0.131778 0.1965192,0.25747 0.045011,0.125694 0.061251,0.369657 -0.00327,0.582951 -0.064518,0.213294 -0.2175968,0.330374 -0.3801458,0.324827 -0.162549,-0.0055 -0.2505944,-0.344014 -0.2505944,-0.344014 l -0.008,-1.664961 c 0,0 0.023778,-0.399102 0.281494,-0.396686 0.2577163,0.0024 0.2642347,0.344 0.2642347,0.344 z"
       id="path2035"
       sodipodi:nodetypes="czcczzzzcczzzzcczcc" />
    <path
       style="fill:#cbcc51;fill-opacity:1;stroke-width:0.765"
       d="m 9.2531063,18.175606 v 2.782808 H 9.5503344 V 19.01176 l 0.4549036,0.787917 0.458804,-0.794672 v 1.945927 h 0.29593 V 18.146463 L 10.608635,18.105913 9.9675559,19.216295 9.3669128,18.17595 Z"
       id="path2037" />
    <path
       style="fill:#cbcc51;fill-opacity:1;stroke-width:0.765"
       d="m 10.935994,18.093637 -0.0094,2.854181 h 1.107447 v -0.383315 h -0.746019 v -1.459146 h 0.779758 v -0.335155 h -0.757849 v -0.438425 h 0.759472 l -0.01802,-0.23814 z"
       id="path2039" />
    <path
       style="fill:#cbcc51;fill-opacity:1;stroke-width:0.765"
       d="m 13.147855,20.365603 0.239499,-0.01282 c 0,0 -0.150051,0.582912 -0.591674,0.600772 -0.441625,0.01786 -0.424135,-0.380633 -0.424135,-0.380633 v -1.99533 c 0,0 0.08336,-0.444902 0.512144,-0.464284 0.428786,-0.01938 0.46729,0.593623 0.46729,0.593623 l -0.213864,-0.0175 c 0,0 0.02477,-0.266773 -0.273925,-0.273923 -0.29869,-0.0072 -0.260104,0.23064 -0.260104,0.23064 l -0.01324,1.784714 c 0,0 -0.05398,0.260952 0.248428,0.266952 0.302408,0.006 0.309585,-0.332206 0.309585,-0.332206 z"
       id="path2041"
       sodipodi:nodetypes="cczcczcczcczc" />
    <path
       style="fill:#cbcc51;fill-opacity:1;stroke-width:0.765"
       d="m 13.645369,20.945404 v -2.885979 h 0.39461 v 1.028676 h 0.599619 v -1.01427 h 0.338074 v 2.895428 h -0.329423 v -1.576597 h -0.586921 v 1.578016 z"
       id="path2043" />
    <path
       style="fill:#cbcc51;fill-opacity:1;stroke-width:0.765"
       d="m 15.064707,20.984337 0.778173,-2.85418 h 0.583991 l 0.757933,2.85418 H 16.763506 L 16.386804,19.578469 H 15.83215 l 0.091,-0.339632 h 0.419584 l -0.119574,-0.816042 -0.12951,-0.01168 -0.648328,2.573226 z"
       id="path2045"
       sodipodi:nodetypes="ccccccccccccc" />
    <path
       style="fill:#cbcc51;fill-opacity:1;stroke-width:0.765"
       d="m 17.318167,20.945564 v -2.815763 h 0.320134 l 0.711787,1.232852 V 18.1428 h 0.284492 v 2.804875 h -0.296701 v -1.240608 l -0.695695,-1.20498 v 2.441112 z"
       id="path2047"
       sodipodi:nodetypes="cccccccccccc" />
    <path
       style="fill:#cbcc51;fill-opacity:1;stroke-width:0.765"
       d="m 18.916306,18.10126 h 0.317495 l 0.01441,2.854181 H 18.92342 Z"
       id="path2049"
       sodipodi:nodetypes="ccccc" />
    <path
       style="fill:#cbcc51;fill-opacity:1;stroke-width:0.765"
       d="m 20.33419,20.365603 0.239499,-0.01282 c 0,0 -0.150051,0.582912 -0.591674,0.600772 -0.441625,0.01786 -0.424135,-0.380633 -0.424135,-0.380633 v -1.99533 c 0,0 0.08336,-0.444902 0.512144,-0.464284 0.428786,-0.01938 0.46729,0.593623 0.46729,0.593623 l -0.213864,-0.0175 c 0,0 0.02477,-0.266773 -0.273925,-0.273923 -0.29869,-0.0072 -0.260104,0.23064 -0.260104,0.23064 l -0.01324,1.784714 c 0,0 -0.05398,0.260952 0.248428,0.266952 0.302408,0.006 0.309585,-0.332206 0.309585,-0.332206 z"
       id="path2051"
       sodipodi:nodetypes="cczcczcczcczc" />
    <text
       xml:space="preserve"
       style="font-style:normal;font-variant:normal;font-weight:normal;font-stretch:normal;font-size:3.175px;font-family:'URW Gothic';-inkscape-font-specification:'URW Gothic, Normal';font-variant-ligatures:normal;font-variant-caps:normal;font-variant-numeric:normal;font-variant-east-asian:normal;fill:#cbcc51;fill-opacity:1;stroke-width:0.765"
       x="0.63609928"
       y="23.854687"
       id="text2347"><tspan
         sodipodi:role="line"
         id="tspan2345"
         style="font-style:normal;font-variant:normal;font-weight:normal;font-stretch:normal;font-size:3.175px;font-family:'URW Gothic';-inkscape-font-specification:'URW Gothic, Normal';font-variant-ligatures:normal;font-variant-caps:normal;font-variant-numeric:normal;font-variant-east-asian:normal;fill:#cbcc51;fill-opacity:1;stroke-width:0.765"
         x="0.63609928"
         y="23.854687">WET YOUR PANTS OR DIAPERS</tspan></text>
    <path
       style="fill:#cbcc51;fill-opacity:1;stroke-width:0.765"
       d="m 0.5625606,25.425106 v 2.782808 H 0.8597887 V 26.26126 l 0.4549036,0.787917 0.458804,-0.794672 v 1.945927 h 0.29593 V 25.395963 L 1.9180893,25.355413 1.2770102,26.465795 0.6763671,25.42545 Z"
       id="path2475"
       inkscape:export-filename="peeing es.png"
       inkscape:export-xdpi="284.53555"
       inkscape:export-ydpi="284.53555" />
    <path
       style="fill:#cbcc51;fill-opacity:1;stroke-width:0.765"
       d="M 2.327673,25.379279 2.318303,28.23346 H 3.42575 V 27.850145 H 2.6797014 V 26.390999 H 3.4594587 V 26.055844 H 2.70161 v -0.438425 h 0.7594721 l -0.018021,-0.23814 z"
       id="path2477" />
    <path
       style="fill:#cbcc51;fill-opacity:1;stroke-width:0.765"
       d="m 4.5992353,27.657417 0.239499,-0.01282 c 0,0 -0.150051,0.582912 -0.591674,0.600772 -0.441625,0.01786 -0.424135,-0.380633 -0.424135,-0.380633 v -1.99533 c 0,0 0.08336,-0.444902 0.512144,-0.464284 0.428786,-0.01938 0.46729,0.593623 0.46729,0.593623 l -0.213864,-0.0175 c 0,0 0.02477,-0.266773 -0.273925,-0.273923 -0.29869,-0.0072 -0.260104,0.23064 -0.260104,0.23064 l -0.01324,1.784714 c 0,0 -0.05398,0.260952 0.248428,0.266952 0.302408,0.006 0.309585,-0.332206 0.309585,-0.332206 z"
       id="path2479"
       sodipodi:nodetypes="cczcczcczcczc" />
    <path
       style="fill:#cbcc51;fill-opacity:1;stroke-width:0.765"
       d="m 4.9265682,28.231193 0.778173,-2.85418 h 0.583991 l 0.757933,2.85418 h -0.421298 l -0.376702,-1.405868 h -0.554654 l 0.091,-0.339632 h 0.419584 l -0.119574,-0.816042 -0.12951,-0.01168 -0.648328,2.573226 z"
       id="path2481"
       sodipodi:nodetypes="ccccccccccccc" />
    <path
       style="fill:#cbcc51;fill-opacity:1;stroke-width:0.765"
       d="m 7.2193426,28.228408 v -2.815763 h 0.320134 l 0.711787,1.232852 v -1.219853 h 0.284492 v 2.804875 h -0.296701 v -1.240608 l -0.695695,-1.20498 v 2.441112 z"
       id="path2483"
       sodipodi:nodetypes="cccccccccccc" />
    <path
       style="fill:#cbcc51;fill-opacity:1;stroke-width:0.765"
       d="m 8.7226534,25.389549 h 0.317495 l 0.01441,2.854181 h -0.324791 z"
       id="path2485"
       sodipodi:nodetypes="ccccc" />
    <path
       style="fill:#cbcc51;fill-opacity:1;stroke-width:0.765"
       d="m 10.262911,27.656108 0.239499,-0.01282 c 0,0 -0.150051,0.582912 -0.5916744,0.600772 -0.441625,0.01786 -0.424135,-0.380633 -0.424135,-0.380633 v -1.99533 c 0,0 0.08336,-0.444902 0.512144,-0.464284 0.4287864,-0.01938 0.4672904,0.593623 0.4672904,0.593623 l -0.213864,-0.0175 c 0,0 0.02477,-0.266773 -0.2739254,-0.273923 -0.29869,-0.0072 -0.260104,0.23064 -0.260104,0.23064 l -0.01324,1.784714 c 0,0 -0.05398,0.260952 0.248428,0.266952 0.3024084,0.006 0.3095854,-0.332206 0.3095854,-0.332206 z"
       id="path2487"
       sodipodi:nodetypes="cczcczcczcczc" />
    <path
       style="fill:#cbcc51;fill-opacity:1;stroke-width:0.765"
       d="m 10.437432,28.231193 0.778173,-2.85418 h 0.583991 l 0.757933,2.85418 h -0.421298 l -0.376702,-1.405868 h -0.554654 l 0.091,-0.339632 h 0.419584 l -0.119574,-0.816042 -0.12951,-0.01168 -0.648328,2.573226 z"
       id="path2489"
       sodipodi:nodetypes="ccccccccccccc" />
    <path
       style="fill:#cbcc51;fill-opacity:1;stroke-width:0.943556"
       d="m 13.35303,26.422647 c -0.107903,0.0097 -0.110998,-0.07562 -0.123007,-0.151277 -0.01201,-0.07566 0.100883,-0.141782 0.09518,-0.246948 -0.0057,-0.105166 0.01634,-0.323763 -0.168378,-0.326398 -0.184714,-0.0026 -0.37104,0.305267 -0.358428,0.648691 0.01261,0.343422 0.716599,0.734678 0.721849,1.106096 0.0053,0.371418 -0.187555,0.744704 -0.474516,0.77406 -0.286962,0.02936 -0.545003,-0.428809 -0.563168,-0.599896 -0.01817,-0.171087 -0.03428,-0.165696 0.108103,-0.179422 0.142387,-0.01373 0.237272,0.516577 0.434826,0.481544 0.197555,-0.03503 0.234743,-0.21156 0.207637,-0.514703 -0.02711,-0.303143 -0.669583,-0.684038 -0.677133,-1.075737 -0.0076,-0.3917 0.229713,-0.914553 0.539442,-0.935082 0.309729,-0.02053 0.461675,0.414865 0.477311,0.620598 0.01564,0.205733 -0.111815,0.388803 -0.219718,0.398474 z"
       id="path2491"
       sodipodi:nodetypes="zzzzzzzzzzzzzzz" />
    <path
       style="fill:#cbcc51;fill-opacity:1;stroke-width:0.765"
       d="m 14.386877,25.348813 v 2.84625 c 0,0 1.635678,-0.326737 1.704804,-1.528629 0.06912,-1.201891 -1.388842,-1.323445 -1.388842,-1.323445 l 0.0087,0.396258 c 0,0 0.959164,0.0044 0.94571,0.933067 -0.01345,0.928669 -0.998014,1.074833 -0.998014,1.074833 l -0.0029,-2.406265 z"
       id="path2703"
       sodipodi:nodetypes="cczcczccc" />
    <path
       style="fill:#cbcc51;fill-opacity:1;stroke-width:0.765"
       d="m 16.291813,25.379279 -0.0094,2.854181 h 1.107447 v -0.383315 h -0.746049 v -1.459146 h 0.779757 V 26.055844 H 16.66575 v -0.438425 h 0.759472 l -0.01802,-0.23814 z"
       id="path2774" />
    <path
       style="fill:#cbcc51;fill-opacity:1;stroke-width:0.782376"
       d="m 19.05535,25.363317 c -0.496752,-0.0071 -0.681667,0.728489 -0.721988,1.250521 -0.04033,0.522032 0.04779,1.541676 0.612947,1.58302 0.565158,0.04135 0.833729,-0.94139 0.839228,-1.481246 0.0055,-0.539856 -0.233434,-1.345217 -0.730187,-1.352295 z"
       id="path2776"
       sodipodi:nodetypes="zzzzz" />
    <path
       style="fill:#cbcc51;fill-opacity:1;stroke-width:0.765"
       d="m 19.898676,25.334759 0.0074,2.85418 h 0.272742 v -1.598701 h 0.155775 l 0.506064,1.598701 h 0.276781 v -0.09441 l -0.374466,-1.530292 c 0,0 0.440314,-0.08044 0.456688,-0.648745 0.01637,-0.568307 -0.692429,-0.580733 -0.692429,-0.580733 h -0.305295 v 0.262838 h 0.279081 c 0,0 0.435212,-0.0582 0.428337,0.344376 -0.0069,0.402573 -0.33037,0.443289 -0.33037,0.443289 h -0.40224 l 0.0036,-1.050503 z"
       id="path2832"
       sodipodi:nodetypes="ccccccccczcccczcccc" />
    <path
       style="fill:#cbcc51;fill-opacity:1;stroke-width:0.765"
       d="m 21.55318,25.389549 h 0.317495 l 0.01441,2.854181 h -0.324791 z"
       id="path2834"
       sodipodi:nodetypes="ccccc" />
    <path
       style="fill:#cbcc51;fill-opacity:1;stroke-width:0.765"
       d="m 22.208543,28.228408 v -2.815763 h 0.320134 l 0.711787,1.232852 v -1.219853 h 0.284492 v 2.804875 h -0.296701 v -1.240608 l -0.695695,-1.20498 v 2.441112 z"
       id="path2836"
       sodipodi:nodetypes="cccccccccccc" />
    <path
       style="fill:#cbcc51;fill-opacity:1;stroke-width:0.765"
       d="m 23.629959,28.231193 0.778173,-2.85418 h 0.583991 l 0.757933,2.85418 h -0.421298 l -0.376702,-1.405868 h -0.554654 l 0.091,-0.339632 h 0.419584 l -0.119574,-0.816042 -0.12951,-0.01168 -0.648328,2.573226 z"
       id="path2838"
       sodipodi:nodetypes="ccccccccccccc" />
    <text
       xml:space="preserve"
       style="font-style:normal;font-variant:normal;font-weight:normal;font-stretch:normal;font-size:3.175px;font-family:'URW Gothic';-inkscape-font-specification:'URW Gothic, Normal';font-variant-ligatures:normal;font-variant-caps:normal;font-variant-numeric:normal;font-variant-east-asian:normal;fill:#cbcc51;fill-opacity:1;stroke-width:0.765"
       x="0.37395039"
       y="31.127632"
       id="text2842"><tspan
         sodipodi:role="line"
         id="tspan2840"
         style="font-style:normal;font-variant:normal;font-weight:normal;font-stretch:normal;font-size:3.175px;font-family:'URW Gothic';-inkscape-font-specification:'URW Gothic, Normal';font-variant-ligatures:normal;font-variant-caps:normal;font-variant-numeric:normal;font-variant-east-asian:normal;fill:#cbcc51;fill-opacity:1;stroke-width:0.765"
         x="0.37395039"
         y="31.127632">MOJA TUS PANTALONES O PAÑALES</tspan></text>
    <text
       xml:space="preserve"
       style="font-style:normal;font-variant:normal;font-weight:normal;font-stretch:normal;font-size:3.175px;font-family:'URW Gothic';-inkscape-font-specification:'URW Gothic, Normal';font-variant-ligatures:normal;font-variant-caps:normal;font-variant-numeric:normal;font-variant-east-asian:normal;fill:#ecebbd;fill-opacity:1;stroke-width:0.765"
       x="2.12609"
       y="53.44323"
       id="text381"><tspan
         sodipodi:role="line"
         id="tspan379"
         style="font-style:normal;font-variant:normal;font-weight:normal;font-stretch:normal;font-size:3.175px;font-family:'URW Gothic';-inkscape-font-specification:'URW Gothic, Normal';font-variant-ligatures:normal;font-variant-caps:normal;font-variant-numeric:normal;font-variant-east-asian:normal;fill:#ecebbd;fill-opacity:1;stroke-width:0.765"
         x="2.12609"
         y="53.44323">DOWNLOAD IT NOW</tspan></text>
    <text
       xml:space="preserve"
       style="font-style:normal;font-variant:normal;font-weight:normal;font-stretch:normal;font-size:1.98539px;font-family:'URW Gothic';-inkscape-font-specification:'URW Gothic, Normal';font-variant-ligatures:normal;font-variant-caps:normal;font-variant-numeric:normal;font-variant-east-asian:normal;fill:#ecebbd;fill-opacity:1;stroke-width:0.47837"
       x="5.4792409"
       y="56.037655"
       id="text510"><tspan
         sodipodi:role="line"
         id="tspan508"
         style="font-style:normal;font-variant:normal;font-weight:normal;font-stretch:normal;font-size:1.98539px;font-family:'URW Gothic';-inkscape-font-specification:'URW Gothic, Normal';font-variant-ligatures:normal;font-variant-caps:normal;font-variant-numeric:normal;font-variant-east-asian:normal;fill:#ecebbd;fill-opacity:1;stroke-width:0.47837"
         x="5.4792409"
         y="56.037655">PAGE LINK IN DESCRIPTION</tspan></text>
    <text
       xml:space="preserve"
       style="font-style:normal;font-variant:normal;font-weight:normal;font-stretch:normal;font-size:3.175px;font-family:'URW Gothic';-inkscape-font-specification:'URW Gothic, Normal';font-variant-ligatures:normal;font-variant-caps:normal;font-variant-numeric:normal;font-variant-east-asian:normal;fill:#ecebbd;fill-opacity:1;stroke-width:0.765"
       x="39.543972"
       y="52.817726"
       id="text514"><tspan
         sodipodi:role="line"
         id="tspan512"
         style="font-style:normal;font-variant:normal;font-weight:normal;font-stretch:normal;font-size:3.175px;font-family:'URW Gothic';-inkscape-font-specification:'URW Gothic, Normal';font-variant-ligatures:normal;font-variant-caps:normal;font-variant-numeric:normal;font-variant-east-asian:normal;fill:#ecebbd;fill-opacity:1;stroke-width:0.765"
         x="39.543972"
         y="52.817726">DESCARGALO AHORA</tspan></text>
    <text
       xml:space="preserve"
       style="font-style:normal;font-variant:normal;font-weight:normal;font-stretch:normal;font-size:1.98539px;font-family:'URW Gothic';-inkscape-font-specification:'URW Gothic, Normal';font-variant-ligatures:normal;font-variant-caps:normal;font-variant-numeric:normal;font-variant-east-asian:normal;fill:#ecebbd;fill-opacity:1;stroke-width:0.47837"
       x="38.901596"
       y="55.412151"
       id="text518"><tspan
         sodipodi:role="line"
         id="tspan516"
         style="font-style:normal;font-variant:normal;font-weight:normal;font-stretch:normal;font-size:1.98539px;font-family:'URW Gothic';-inkscape-font-specification:'URW Gothic, Normal';font-variant-ligatures:normal;font-variant-caps:normal;font-variant-numeric:normal;font-variant-east-asian:normal;fill:#ecebbd;fill-opacity:1;stroke-width:0.47837"
         x="38.901596"
         y="55.412151">LINK DE LA PAGINA EN DESCRIPCIÓN</tspan></text>
  </g>
</svg>
